<?xml version="1.0" encoding="UTF-8" standalone="no"?>
<!DOCTYPE svg PUBLIC "-//W3C//DTD SVG 1.1//EN" "http://www.w3.org/Graphics/SVG/1.1/DTD/svg11.dtd">
<svg width="100%" height="100%" viewBox="0 0 381 548" version="1.1" xmlns="http://www.w3.org/2000/svg" xmlns:xlink="http://www.w3.org/1999/xlink" xml:space="preserve" xmlns:serif="http://www.serif.com/" style="fill-rule:evenodd;clip-rule:evenodd;stroke-linejoin:round;stroke-miterlimit:2;">
    <g transform="matrix(1,0,0,1,-10.7019,-11.8)">
        <g transform="matrix(1,0,0,1,7.34628,-1.04946)">
            <circle cx="194.183" cy="201.312" r="161.619" style="fill:white;"/>
        </g>
        <path d="M81.107,236.127C78.058,225.355 76.432,213.99 76.432,202.248C76.432,133.42 132.311,77.54 201.139,77.54C269.967,77.54 325.847,133.42 325.847,202.248C325.847,214.972 323.937,227.253 320.36,238.808L270.501,188.74C268.442,186.682 264.118,186.359 261.434,188.377C254.383,193.678 233.684,214.478 228.182,218.4C216.673,204.483 192.717,173.17 183.509,163.961C173.255,153.708 153.34,153.321 144.023,164.434C133.815,176.61 93.212,222.477 81.107,236.127Z" style="fill:rgb(169,149,2);"/>
        <path d="M243.013,320.67C229.925,325.364 215.827,327.909 201.139,327.909C164.02,327.909 130.667,311.657 107.833,285.866L164.714,223.802L243.013,320.67Z" style="fill:rgb(7,131,14);"/>
        <path d="M294.773,285.488C289.003,292.059 282.554,298.016 275.539,303.259L249.407,269.77L267.353,253.083L294.773,285.488Z" style="fill:rgb(7,131,14);"/>
        <path d="M81.107,236.127C93.212,222.477 133.815,176.61 144.023,164.434C153.34,153.321 173.255,153.708 183.509,163.961C192.717,173.17 216.673,204.483 228.182,218.4C233.684,214.478 254.383,193.678 261.434,188.377C264.118,186.359 268.442,186.682 270.501,188.74L320.36,238.808C318.789,243.962 316.891,248.973 314.675,253.81C307.876,246.778 281.273,220.693 270.975,209.84C267.304,205.971 265.929,205.978 262.056,209.644C252.364,218.817 228.01,243.056 228.01,243.056C228.01,243.056 183.348,187.203 171.533,176.055C168.038,172.758 161.143,172.145 157.118,176.17C144.088,189.201 90.842,251.653 90.842,251.653C89.934,252.677 88.84,253.438 87.643,253.902C85.029,248.196 82.836,242.258 81.107,236.127Z" style="fill:rgb(104,100,10);"/>
        <path d="M200.914,11.8L200.689,11.8L201.139,11.8L200.914,11.8C305.893,11.919 391.089,97.216 391.089,202.248C391.089,237.404 381.544,270.347 364.907,298.626C332.602,353.535 206.952,549.917 200.914,559.351L201.139,559.703L200.689,559.703L200.914,559.351C194.875,549.917 69.2,353.535 36.889,298.626C20.249,270.347 10.702,237.404 10.702,202.248C10.702,97.216 95.915,11.919 200.914,11.8ZM201.139,55.157C282.321,55.157 348.23,121.066 348.23,202.248C348.23,283.43 282.321,349.339 201.139,349.339C119.958,349.339 54.048,283.43 54.048,202.248C54.048,121.066 119.958,55.157 201.139,55.157Z" style="fill:url(#_Linear1);"/>
        <g transform="matrix(1,0,0,1,20.9075,9.83881)">
            <path d="M202.566,105.742C203.584,98.52 209.796,92.958 217.296,92.958C221.57,92.958 225.425,94.764 228.139,97.653C229.55,97.161 231.066,96.893 232.645,96.893C240.203,96.893 246.34,103.03 246.34,110.589C246.34,110.71 246.339,110.831 246.335,110.952C246.972,111.641 247.529,112.406 247.989,113.232C248.504,113.15 249.031,113.108 249.567,113.108C255.084,113.108 259.564,117.587 259.564,123.104C259.564,128.621 255.084,133.1 249.567,133.1C248.685,133.1 247.83,132.986 247.014,132.771C244.966,135.096 241.966,136.563 238.627,136.563C236.309,136.563 234.155,135.857 232.37,134.647C229.717,138.825 225.048,141.601 219.736,141.601C214.749,141.601 210.329,139.155 207.611,135.397C206.451,136.136 205.075,136.563 203.6,136.563C201.304,136.563 199.248,135.526 197.876,133.895C196.408,134.884 194.64,135.462 192.738,135.462C190.869,135.462 189.13,134.904 187.677,133.946C186.665,134.606 185.456,134.989 184.159,134.989C180.597,134.989 177.705,132.097 177.705,128.535C177.705,124.973 180.597,122.081 184.159,122.081C184.281,122.081 184.402,122.084 184.522,122.091C185.942,119.296 188.746,117.321 192.03,117.07C192.056,111.09 196.692,106.19 202.566,105.742Z" style="fill:white;"/>
        </g>
        <path d="M155.745,114.545C157.384,112.427 159.951,111.063 162.833,111.063C167.778,111.063 171.792,115.078 171.792,120.022C171.792,122.038 171.125,123.9 169.999,125.398C172.341,127.255 173.845,130.125 173.845,133.344C173.845,138.94 169.302,143.482 163.707,143.482C161.554,143.482 159.556,142.81 157.914,141.663C156.353,142.807 154.428,143.482 152.346,143.482C150.074,143.482 147.989,142.678 146.36,141.338C145.98,141.409 145.587,141.446 145.187,141.446C144.243,141.446 143.346,141.24 142.539,140.871C141.426,142.066 139.839,142.814 138.079,142.814C135.877,142.814 133.946,141.643 132.874,139.892C131.719,141.268 129.986,142.143 128.05,142.143C124.575,142.143 121.753,139.322 121.753,135.847C121.753,132.508 124.357,129.773 127.643,129.563C126.981,128.455 126.601,127.16 126.601,125.776C126.601,121.691 129.918,118.374 134.003,118.374C134.209,118.374 134.414,118.383 134.616,118.399C135.236,115.21 138.046,112.799 141.415,112.799C143.59,112.799 145.532,113.804 146.802,115.374C148.125,114.163 149.887,113.425 151.82,113.425C153.26,113.425 154.605,113.835 155.745,114.545Z" style="fill:white;"/>
    </g>
    <defs>
        <linearGradient id="_Linear1" x1="0" y1="0" x2="1" y2="0" gradientUnits="userSpaceOnUse" gradientTransform="matrix(380.387,0,0,547.903,10.7019,285.751)"><stop offset="0" style="stop-color:rgb(15,166,22);stop-opacity:1"/><stop offset="0.33" style="stop-color:rgb(15,164,22);stop-opacity:1"/><stop offset="0.42" style="stop-color:rgb(14,160,21);stop-opacity:1"/><stop offset="0.5" style="stop-color:rgb(12,154,19);stop-opacity:1"/><stop offset="1" style="stop-color:rgb(6,130,14);stop-opacity:1"/></linearGradient>
    </defs>
</svg>
